<svg width="24" height="24" viewBox="0 0 24 24" fill="none" xmlns="http://www.w3.org/2000/svg">
<path d="M16 9C18.1875 9 20 10.8125 20 13C20 15.2188 18.1875 17 16 17C14.7812 17 13.7188 16.5 13 15.6562V18H14C14.5312 18 15 18.4688 15 19C15 19.5625 14.5312 20 14 20H10C9.4375 20 9 19.5625 9 19C9 18.4688 9.4375 18 10 18H11V15.6562C10.25 16.5 9.1875 17 8 17C5.78125 17 4 15.2188 4 13C4 10.8125 5.78125 9 8 9C8.03125 9 8.0625 9 8.125 9.03125C8.03125 8.6875 8 8.375 8 8C8 5.8125 9.78125 4 12 4C14.1875 4 16 5.8125 16 8C16 8.375 15.9375 8.6875 15.8438 9.03125C15.9062 9 15.9375 9 16 9Z" fill="black" fill-opacity="0.87"/>
</svg>
