<svg width="24" height="24" viewBox="0 0 24 24" fill="none" xmlns="http://www.w3.org/2000/svg">
<path d="M4 9.96875V9.8125C4 7.625 5.5625 5.75 7.71875 5.40625C9.125 5.15625 10.5938 5.625 11.625 6.65625L12 7L12.3438 6.65625C13.375 5.625 14.8438 5.15625 16.25 5.40625C18.4062 5.75 20 7.625 20 9.8125V9.96875C20 11.2812 19.4375 12.5312 18.5 13.4062L12.8438 18.6875C12.625 18.9062 12.3125 19 12 19C11.6562 19 11.3438 18.9062 11.125 18.6875L5.46875 13.4062C4.53125 12.5312 4 11.2812 4 9.96875Z" fill="black" fill-opacity="0.87"/>
</svg>
