<svg width="24" height="24" viewBox="0 0 24 24" fill="none" xmlns="http://www.w3.org/2000/svg">
<path d="M18.75 10.1562C20.3438 11.6562 20.4062 14.1875 18.875 15.8125C17.375 17.4062 14.8438 17.4688 13.2188 15.9688L13 15.7188V18H14C14.5312 18 15 18.4688 15 19C15 19.5625 14.5312 20 14 20H10C9.4375 20 9 19.5625 9 19C9 18.4688 9.4375 18 10 18H11V15.7188L10.75 15.9688C9.125 17.4688 6.59375 17.4062 5.09375 15.8125C3.5625 14.1875 3.625 11.6562 5.21875 10.1562L11.2812 4.40625C11.6875 4.03125 12.2812 4.03125 12.6875 4.40625L18.75 10.1562Z" fill="black" fill-opacity="0.87"/>
</svg>
